<?xml version="1.0" encoding="UTF-8" standalone="no"?>
<!-- Created with Inkscape (http://www.inkscape.org/) -->

<svg
   xmlns:dc="http://purl.org/dc/elements/1.1/"
   xmlns:cc="http://creativecommons.org/ns#"
   xmlns:rdf="http://www.w3.org/1999/02/22-rdf-syntax-ns#"
   xmlns:svg="http://www.w3.org/2000/svg"
   xmlns="http://www.w3.org/2000/svg"
   xmlns:sodipodi="http://sodipodi.sourceforge.net/DTD/sodipodi-0.dtd"
   xmlns:inkscape="http://www.inkscape.org/namespaces/inkscape"
   width="210mm"
   height="297mm"
   viewBox="0 0 210 297"
   version="1.1"
   id="svg8"
   inkscape:version="0.92.4 (5da689c313, 2019-01-14)"
   sodipodi:docname="mouse.svg"
   inkscape:export-filename="C:\Users\kyona\Documents\Coding Projects\Cartoon-Platformer\assets\mouse.png"
   inkscape:export-xdpi="96"
   inkscape:export-ydpi="96">
  <defs
     id="defs2">
    <inkscape:path-effect
       effect="spiro"
       id="path-effect862"
       is_visible="true" />
  </defs>
  <sodipodi:namedview
     id="base"
     pagecolor="#ffffff"
     bordercolor="#666666"
     borderopacity="1.0"
     inkscape:pageopacity="0.0"
     inkscape:pageshadow="2"
     inkscape:zoom="0.98994949"
     inkscape:cx="109.07619"
     inkscape:cy="717.62153"
     inkscape:document-units="mm"
     inkscape:current-layer="layer1"
     showgrid="false"
     inkscape:snap-global="false"
     inkscape:window-width="1366"
     inkscape:window-height="745"
     inkscape:window-x="-8"
     inkscape:window-y="-8"
     inkscape:window-maximized="1" />
  <metadata
     id="metadata5">
    <rdf:RDF>
      <cc:Work
         rdf:about="">
        <dc:format>image/svg+xml</dc:format>
        <dc:type
           rdf:resource="http://purl.org/dc/dcmitype/StillImage" />
        <dc:title></dc:title>
      </cc:Work>
    </rdf:RDF>
  </metadata>
  <g
     inkscape:label="Layer 1"
     inkscape:groupmode="layer"
     id="layer1">
    <path
       style="fill:#f8dbff;stroke:none;stroke-width:0.26458332px;stroke-linecap:butt;stroke-linejoin:miter;stroke-opacity:1;fill-opacity:1"
       d="m 88.867116,112.31676 c 1.772844,-4.28003 9.680356,-1.94715 12.828934,-5.3454 2.99659,-3.23421 5.31846,-8.312283 4.14268,-12.561662 -1.03593,-3.743938 -8.819894,-7.617182 -8.819894,-7.617182 0,0 10.277124,1.809693 12.294404,5.879928 1.65653,3.342373 -0.61028,7.618156 -2.2718,10.958056 -1.89817,3.8156 -4.68141,7.57418 -8.418985,9.6217 -2.60784,1.42863 -6.231928,2.80067 -8.819894,1.33635 -0.712762,-0.4033 -1.248842,-1.51518 -0.935445,-2.27179 z"
       id="path883"
       inkscape:connector-curvature="0"
       sodipodi:nodetypes="ssscsssss" />
    <path
       style="fill:#666666;fill-opacity:1;stroke:none;stroke-width:1.56500006;stroke-linecap:butt;stroke-linejoin:miter;stroke-miterlimit:4;stroke-dasharray:none;stroke-opacity:1"
       d="m 57.318197,124.21683 c -2.67695,0.077 -4.550021,0.0317 -6.567335,0.21267 -0.931173,0.0835 -1.769074,1.06346 -2.031624,1.96075 -0.225561,0.77088 -0.411948,2.02242 0.09449,2.64583 0.436253,0.53702 1.320978,0.46148 2.007999,0.54334 0.80172,0.0955 4.629802,-0.10398 5.787761,-0.16542 0.929352,-0.0493 1.013804,-1.62846 1.133928,-2.55134 0.115298,-0.88579 0.467669,-2.67151 -0.425223,-2.64583 z"
       id="path866-2"
       inkscape:connector-curvature="0"
       sodipodi:nodetypes="ssssssss" />
    <path
       style="opacity:1;fill:#808080;fill-opacity:1;stroke:none;stroke-width:4.34788132;stroke-linecap:round;stroke-linejoin:round;stroke-miterlimit:4;stroke-dasharray:none;stroke-dashoffset:0;stroke-opacity:1;paint-order:stroke fill markers"
       d="m 91.848215,116.96277 c -4e-6,8.28343 -11.387147,9.21365 -25.269051,9.21365 -13.881904,0 -25.001777,-0.93022 -25.001781,-9.21365 4e-6,-8.28343 11.253512,-14.99848 25.135416,-14.99848 13.881904,0 25.135412,6.71505 25.135416,14.99848 z"
       id="path815"
       inkscape:connector-curvature="0"
       sodipodi:nodetypes="cscsc" />
    <path
       style="opacity:1;fill:#808080;fill-opacity:1;stroke:none;stroke-width:5.21081924;stroke-linecap:round;stroke-linejoin:round;stroke-miterlimit:4;stroke-dasharray:none;stroke-dashoffset:0;stroke-opacity:1;paint-order:stroke fill markers"
       d="m 40.208277,99.675474 a 7.0456169,7.8798506 0 0 1 -7.045616,7.879846 7.0456169,7.8798506 0 0 1 -7.045618,-7.879846 7.0456169,7.8798506 0 0 1 7.045618,-7.87985 7.0456169,7.8798506 0 0 1 7.045616,7.87985 z"
       id="path819"
       inkscape:connector-curvature="0" />
    <path
       style="opacity:1;fill:#999999;fill-opacity:1;stroke:none;stroke-width:3.70104647;stroke-linecap:round;stroke-linejoin:round;stroke-miterlimit:4;stroke-dasharray:none;stroke-dashoffset:0;stroke-opacity:1;paint-order:stroke fill markers"
       d="m 51.935978,113.95074 c 1.325981,6.40083 -3.484716,12.80899 -10.744995,14.31301 -7.260279,1.50403 -20.644207,-1.11673 -21.970185,-7.51756 -1.325984,-6.40084 9.908102,-14.15789 17.168381,-15.66192 7.26028,-1.50402 14.220818,2.46563 15.546799,8.86647 z"
       id="path817"
       inkscape:connector-curvature="0"
       sodipodi:nodetypes="sssss" />
    <path
       style="opacity:1;fill:#b3b3b3;fill-opacity:1;stroke:none;stroke-width:3.96499991;stroke-linecap:round;stroke-linejoin:round;stroke-miterlimit:4;stroke-dasharray:none;stroke-dashoffset:0;stroke-opacity:1;paint-order:stroke fill markers"
       d="m 48.758928,99.318451 a 6.9925594,9.0714283 0 0 1 -6.992559,9.071429 6.9925594,9.0714283 0 0 1 -6.99256,-9.071429 6.9925594,9.0714283 0 0 1 6.99256,-9.071428 6.9925594,9.0714283 0 0 1 6.992559,9.071428 z"
       id="path821" />
    <ellipse
       style="opacity:1;fill:#000000;fill-opacity:1;stroke:none;stroke-width:3.96499991;stroke-linecap:round;stroke-linejoin:round;stroke-miterlimit:4;stroke-dasharray:none;stroke-dashoffset:0;stroke-opacity:1;paint-order:stroke fill markers"
       id="path827"
       cx="21.782467"
       cy="120.53529"
       rx="2.4054255"
       ry="1.5367998" />
    <ellipse
       style="opacity:1;fill:#000000;fill-opacity:1;stroke:none;stroke-width:3.96499991;stroke-linecap:round;stroke-linejoin:round;stroke-miterlimit:4;stroke-dasharray:none;stroke-dashoffset:0;stroke-opacity:1;paint-order:stroke fill markers"
       id="path829"
       cx="33.876411"
       cy="113.31902"
       rx="1.0022607"
       ry="1.2695302" />
    <path
       style="fill:none;stroke:#000000;stroke-width:0.26458332px;stroke-linecap:butt;stroke-linejoin:miter;stroke-opacity:1"
       d="m 37.685003,118.73122 -7.617182,3.47451 6.815374,2.53906"
       id="path831"
       inkscape:connector-curvature="0" />
    <path
       style="fill:none;stroke:#000000;stroke-width:0.26458332px;stroke-linecap:butt;stroke-linejoin:miter;stroke-opacity:1"
       d="m 30.067821,122.20573 8.15172,-0.13364 v 0"
       id="path833"
       inkscape:connector-curvature="0" />
    <path
       style="fill:#999999;fill-opacity:1;stroke:none;stroke-width:0.96499997;stroke-linecap:butt;stroke-linejoin:miter;stroke-miterlimit:4;stroke-dasharray:none;stroke-opacity:1"
       d="m 79.635837,110.40673 c -2.133231,0.89185 -3.906921,3.30668 -4.075859,5.61266 -0.20017,2.73228 3.837481,6.3458 3.80859,7.2831 -0.04506,1.46191 -4.622194,0.17453 -6.214017,1.60361 -1.36366,1.22424 -2.797621,3.52664 -1.937703,5.14494 0.451217,0.84916 1.850366,0.56429 2.80633,0.66818 2.568863,0.27918 5.313495,0.72454 7.750815,-0.13364 1.542212,-0.54301 2.832726,-1.74738 3.87541,-3.00678 2.248704,-2.71609 5.097873,-5.90679 4.810848,-9.42125 -0.231771,-2.8379 -2.630158,-5.40469 -5.067637,-6.87646 -1.661539,-1.00325 -3.966042,-1.62302 -5.756777,-0.87436 z"
       id="path864"
       inkscape:connector-curvature="0"
       sodipodi:nodetypes="asssssssaaa" />
    <path
       style="fill:#999999;fill-opacity:1;stroke:none;stroke-width:1.56500006;stroke-linecap:butt;stroke-linejoin:miter;stroke-miterlimit:4;stroke-dasharray:none;stroke-opacity:1"
       d="m 63.003906,124.26488 c -2.67695,0.077 -4.550021,0.0317 -6.567335,0.21267 -0.931173,0.0835 -1.769074,1.06346 -2.031624,1.96075 -0.225561,0.77088 -0.411948,2.02242 0.09449,2.64583 0.436253,0.53702 1.320978,0.46148 2.007999,0.54334 0.80172,0.0955 4.629802,-0.10398 5.787761,-0.16542 0.929352,-0.0493 1.013804,-1.62846 1.133928,-2.55134 0.115298,-0.88579 0.467669,-2.67151 -0.425223,-2.64583 z"
       id="path866"
       inkscape:connector-curvature="0"
       sodipodi:nodetypes="ssssssss" />
  </g>
</svg>
